<?xml version="1.0" standalone="no"?>
<!DOCTYPE svg PUBLIC "-//W3C//DTD SVG 20010904//EN"
 "http://www.w3.org/TR/2001/REC-SVG-20010904/DTD/svg10.dtd">
<svg version="1.0" xmlns="http://www.w3.org/2000/svg"
 width="90.000000pt" height="90.000000pt" viewBox="0 0 90.000000 90.000000"
 preserveAspectRatio="xMidYMid meet">
<metadata>
Created by potrace 1.14, written by Peter Selinger 2001-2017
</metadata>
<g transform="translate(0.000000,90.000000) scale(0.100000,-0.100000)"
fill="#000000" stroke="none">
<path d="M435 790 c-4 -6 -4 -23 -1 -38 7 -29 -26 -93 -38 -74 -6 10 -74 25
-121 26 -37 2 -118 -33 -153 -66 -19 -18 -44 -53 -55 -77 -11 -25 -29 -53 -41
-63 -21 -18 -21 -18 -1 -33 10 -8 21 -27 23 -43 2 -15 12 -46 22 -69 16 -36
16 -44 5 -50 -16 -9 -43 -71 -39 -90 1 -7 2 -20 3 -28 0 -8 13 -29 28 -45 53
-59 153 -48 188 20 8 16 15 35 15 43 0 7 7 14 15 14 8 0 15 -5 15 -10 0 -26
36 -80 63 -94 65 -33 159 11 170 80 5 32 -15 96 -34 107 -6 4 -2 25 11 54 12
30 20 70 20 107 0 56 1 59 25 59 19 0 28 -8 39 -33 16 -40 65 -83 105 -92 37
-8 100 9 134 35 30 24 60 96 53 130 -20 109 -107 160 -213 126 -16 -5 -23 -3
-23 6 0 30 -57 70 -107 76 -26 2 -52 11 -56 18 -9 16 -43 19 -52 4z"/>
</g>
</svg>
